<?xml version="1.0" encoding="iso-8859-1"?>
<!-- Uploaded to: SVG Repo, www.svgrepo.com, Generator: SVG Repo Mixer Tools -->
<svg version="1.1" id="Layer_1" xmlns="http://www.w3.org/2000/svg" xmlns:xlink="http://www.w3.org/1999/xlink" 
	 viewBox="0 0 501.551 501.551" xml:space="preserve">
<path style="fill:#40596B;" d="M480.653,459.233H20.898C9.404,459.233,0,468.637,0,480.131s9.404,20.898,20.898,20.898h458.71
	c11.494,0,20.898-9.404,20.898-20.898S492.147,459.233,480.653,459.233z"/>
<g>
	<rect x="297.796" y="184.424" style="fill:#E2E2E2;" width="165.094" height="274.808"/>
	<rect x="89.861" y="184.424" style="fill:#E2E2E2;" width="119.118" height="43.886"/>
</g>
<polygon style="fill:#84DBFF;" points="216.294,278.465 213.159,305.633 196.441,460.278 101.355,460.278 84.637,305.633 
	81.502,278.465 "/>
<rect x="135.837" y="229.355" style="fill:#ACB3BA;" width="27.167" height="29.257"/>
<path style="fill:#40596B;" d="M422.139,0.522H79.412C35.527,0.522,0,36.049,0,79.935v105.535h501.551V79.935
	C501.551,36.049,466.024,0.522,422.139,0.522z"/>
<polygon style="fill:#54C0EB;" points="216.294,278.465 213.159,305.633 84.637,305.633 81.502,278.465 "/>
<g>
	<rect x="89.861" y="184.424" style="fill:#CDD6E0;" width="119.118" height="15.673"/>
	<rect x="297.796" y="184.424" style="fill:#CDD6E0;" width="165.094" height="15.673"/>
</g>
<g>
	<circle style="fill:#FFD15C;" cx="412.735" cy="92.473" r="31.347"/>
	<circle style="fill:#FFD15C;" cx="331.233" cy="92.473" r="31.347"/>
</g>
</svg>